<?xml version="1.0" encoding="UTF-8" standalone="no"?>
<svg width="73px" height="32px" viewBox="0 0 73 32" version="1.1" xmlns="http://www.w3.org/2000/svg" xmlns:xlink="http://www.w3.org/1999/xlink">
    <!-- Generator: Sketch 41 (35326) - http://www.bohemiancoding.com/sketch -->
    <title>Group</title>
    <desc>Created with Sketch.</desc>
    <defs></defs>
    <g id="Page-1" stroke="none" stroke-width="1" fill="none" fill-rule="evenodd">
        <g id="Desktop" transform="translate(-454.000000, -487.000000)" fill="#FFFFFF">
            <g id="Group" transform="translate(454.000000, 487.000000)">
                <path d="M11.9215686,13.7411765 C10.6666667,12.3607843 9.09803922,11.545098 7.21568627,11.545098 C4.07843137,11.545098 1.69411765,14.2431373 1.69411765,17.3176471 C1.69411765,20.3921569 4.01568627,23.0901961 7.21568627,23.0901961 C9.16078431,23.0901961 10.9176471,22.1490196 12.172549,20.7058824 L12.172549,22.4627451 C10.7921569,23.654902 9.09803922,24.345098 7.27843137,24.345098 C3.3254902,24.345098 0.376470588,21.2705882 0.376470588,17.3176471 C0.376470588,13.427451 3.3254902,10.3529412 7.27843137,10.3529412 C9.03529412,10.3529412 10.6039216,10.854902 11.9215686,11.9843137 L11.9215686,13.7411765 Z" id="Shape"></path>
                <path d="M26.7294118,17.3803922 C26.7294118,21.3333333 23.654902,24.345098 19.7019608,24.345098 C15.8745098,24.345098 12.7372549,21.2078431 12.7372549,17.3803922 C12.7372549,13.5529412 15.8117647,10.3529412 19.7019608,10.3529412 C23.5921569,10.3529412 26.7294118,13.3647059 26.7294118,17.3803922 Z M13.9921569,17.3803922 C13.9921569,20.454902 16.3764706,23.1529412 19.5764706,23.1529412 C22.8392157,23.1529412 25.4117647,20.6431373 25.4117647,17.3803922 C25.4117647,14.054902 22.9019608,11.6078431 19.5764706,11.6078431 C16.3764706,11.6078431 13.9921569,14.3058824 13.9921569,17.3803922 Z" id="Shape"></path>
                <path d="M43.2313725,17.5058824 C43.1686275,20.8941176 45.4901961,23.1529412 48.627451,23.1529412 C50.6980392,23.1529412 52.3921569,21.8980392 53.3333333,20.0784314 L54.4627451,20.7058824 C53.2705882,23.027451 51.0745098,24.345098 48.4392157,24.345098 C44.4862745,24.345098 41.9137255,21.145098 41.9137255,17.3176471 C41.9137255,13.5529412 44.4862745,10.3529412 48.4392157,10.3529412 C52.5176471,10.3529412 54.9019608,13.6156863 54.9019608,17.4431373 L43.2313725,17.4431373 L43.2313725,17.5058824 Z M53.5215686,16.2509804 C53.2078431,13.8039216 51.2,11.6078431 48.4392157,11.6078431 C45.7411765,11.6078431 43.4196078,13.7411765 43.2313725,16.2509804 L53.5215686,16.2509804 Z" id="Shape"></path>
                <path d="M72.4078431,6.21176471 C72.4078431,6.90196078 71.9058824,7.40392157 71.2156863,7.40392157 C70.5254902,7.40392157 70.0235294,6.90196078 70.0235294,6.21176471 C70.0235294,5.58431373 70.5254902,5.01960784 71.2156863,5.01960784 C71.8431373,5.01960784 72.4078431,5.58431373 72.4078431,6.21176471 Z M71.8431373,24.0941176 L70.5254902,24.0941176 L70.5254902,10.6666667 L71.8431373,10.6666667 L71.8431373,24.0941176 Z" id="Shape"></path>
                <g transform="translate(27.607843, 0.000000)" id="Shape">
                    <path d="M13.2392157,17.5058824 L13.2392157,17.3803922 C13.2392157,17.3803922 13.2392157,17.3803922 13.2392157,17.3176471 L13.2392157,17.5058824 Z"></path>
                    <path d="M13.2392157,17.3803922 L13.2392157,17.3176471 C13.2392157,17.3176471 13.2392157,17.3176471 13.2392157,17.3803922 C13.2392157,17.3176471 13.2392157,17.3803922 13.2392157,17.3803922 Z"></path>
                    <path d="M13.2392157,17.3803922 L13.2392157,17.3176471 C13.2392157,17.3176471 13.2392157,17.3176471 13.2392157,17.3803922 C13.2392157,17.3176471 13.2392157,17.3803922 13.2392157,17.3803922 Z" opacity="0.5"></path>
                    <path d="M11.9843137,0.125490196 L11.9843137,12.9882353 L11.9215686,12.9882353 C11.9215686,12.9882353 13.2392157,14.8078431 13.3019608,17.254902 L13.3019608,17.254902 L13.3019608,0.125490196 L11.9843137,0.125490196 Z"></path>
                    <path d="M11.9843137,0.125490196 L11.9843137,12.9882353 L11.9215686,12.9882353 C10.7921569,11.2941176 8.84705882,10.3529412 6.77647059,10.3529412 C2.76078431,10.3529412 0.250980392,13.3647059 0.250980392,17.254902 C0.250980392,21.145098 2.82352941,24.345098 6.83921569,24.345098 L7.09019608,24.345098 L7.09019608,24.345098 C10.6666667,24.345098 12.9882353,21.5215686 13.2392157,17.8823529 L13.2392157,17.6941176 L13.2392157,17.5058824 L13.2392157,17.3176471 L13.2392157,17.254902 L13.2392157,17.254902 L13.2392157,0.125490196 L11.9843137,0.125490196 Z M12.0470588,17.254902 L12.0470588,17.254902 L12.0470588,17.5686275 L12.0470588,17.5686275 L12.0470588,17.6941176 C11.7960784,20.6431373 9.97647059,23.0901961 6.77647059,23.0901961 C3.51372549,23.0901961 1.50588235,20.3294118 1.50588235,17.254902 C1.50588235,14.3686275 3.63921569,11.545098 6.71372549,11.545098 C9.97647059,11.545098 12.1098039,13.9921569 12.1098039,17.0666667 C12.0470588,17.1921569 12.0470588,17.254902 12.0470588,17.254902 L12.0470588,17.254902 Z"></path>
                </g>
                <g transform="translate(55.843137, 10.039216)" id="Shape">
                    <path d="M0.125490196,7.21568627 L0.125490196,7.34117647 C0.125490196,7.34117647 0.125490196,7.34117647 0.125490196,7.40392157 L0.125490196,7.21568627 Z"></path>
                    <path d="M0.125490196,7.34117647 L0.125490196,7.40392157 C0.125490196,7.40392157 0.125490196,7.40392157 0.125490196,7.34117647 L0.125490196,7.34117647 Z"></path>
                    <path d="M0.125490196,7.34117647 L0.125490196,7.40392157 C0.125490196,7.40392157 0.125490196,7.40392157 0.125490196,7.34117647 L0.125490196,7.34117647 Z" opacity="0.5"></path>
                    <path d="M1.38039216,21.6470588 L1.38039216,11.7333333 L1.44313725,11.7333333 C1.44313725,11.7333333 0.125490196,9.91372549 0.062745098,7.46666667 L0.062745098,7.46666667 L0.062745098,21.7098039 L1.38039216,21.7098039 L1.38039216,21.6470588 Z"></path>
                    <path d="M1.38039216,21.6470588 L1.38039216,11.7333333 L1.44313725,11.7333333 C2.57254902,13.427451 4.51764706,14.3686275 6.58823529,14.3686275 C10.6039216,14.3686275 13.1137255,11.3568627 13.1137255,7.46666667 C13.1137255,3.57647059 10.5411765,0.376470588 6.5254902,0.376470588 L6.2745098,0.376470588 L6.2745098,0.376470588 C2.69803922,0.376470588 0.31372549,3.2 0.125490196,6.83921569 L0.125490196,7.02745098 L0.125490196,7.21568627 L0.125490196,7.40392157 L0.125490196,7.46666667 L0.125490196,7.46666667 L0.125490196,21.7098039 L1.38039216,21.7098039 L1.38039216,21.6470588 Z M1.31764706,7.40392157 L1.31764706,7.40392157 L1.31764706,7.09019608 L1.31764706,7.09019608 L1.31764706,6.96470588 C1.56862745,4.01568627 3.38823529,1.56862745 6.58823529,1.56862745 C9.85098039,1.56862745 11.8588235,4.32941176 11.8588235,7.40392157 C11.8588235,10.2901961 9.7254902,13.1137255 6.65098039,13.1137255 C3.38823529,13.1137255 1.25490196,10.6666667 1.25490196,7.59215686 C1.31764706,7.52941176 1.31764706,7.46666667 1.31764706,7.40392157 L1.31764706,7.40392157 Z"></path>
                </g>
            </g>
        </g>
    </g>
</svg>